<svg xmlns="http://www.w3.org/2000/svg" viewBox="0 0 24 24"><circle cx="12" cy="12" r="12" style="fill:#fff"/><path d="M2.12,0A30.81,30.81,0,0,0,9,5.54c4,2.33,4,1.84,7.45,4.22a18.39,18.39,0,0,1,6,7A16.19,16.19,0,0,1,24,24a18.48,18.48,0,0,0-6-9,12.52,12.52,0,0,0-3.54-1.81C3.17,8.55,2.53,1.26,2.12,0Z" style="fill:#000"/><path d="M0,5.64a17.52,17.52,0,0,0,6.12,5.68c3,1.54,2.71,1.11,7.12,2.16,2,.49,4.24,1,6,2.62A17.81,17.81,0,0,1,24,24a12.17,12.17,0,0,0-4.63-4.45c-2.46-1.41-3.18-1.16-7.57-2.19-2.39-.57-4-.36-7-3.22C1.14,10.6.64,7.19,0,5.64Z" style="fill:#000"/><path d="M.29,12.6a8.73,8.73,0,0,0,4.76,4.48c2.46,1,4.39.86,8.27,1.16a14,14,0,0,1,6.12,1.61A13.86,13.86,0,0,1,24,24a39.51,39.51,0,0,0-7.46-1.64c-3.17-.25-3.63.08-6.87-.25A9.21,9.21,0,0,1,3.82,19C1.72,16.68,1.25,14.77.29,12.6Z" style="fill:#1aa1aa"/></svg>