<svg viewBox="0 0 130.18 101.86"><g transform="translate(-21.847 -92.699)"><g strokeWidth=".26458"><path d="m64.445 172.74v-21.828h-42.598v-14.552h42.598v-43.656h14.549l0.06768 21.762 0.06768 21.762 72.893 0.1342v14.548l-72.893 0.1342-0.06768 21.762-0.06768 21.762h-14.549z" fill="#fdfdfd"/><path d="m21.847 172.74v-21.828h42.598v43.656h-42.598zm57.215 0.0661 0.06768-21.762 72.893-0.1342v43.658h-73.028zm-57.215-58.275v-21.828h42.598v43.656h-42.598zm57.326 21.652c-0.097015-0.09701-0.17639-9.9197-0.17639-21.828v-21.652h73.025v43.656h-36.336c-19.985 0-36.415-0.0794-36.512-0.17639z" fill="#c5032b"/></g></g></svg>