<svg viewBox="0 0 200.19936 59.724659"><g transform="translate(13.702806,-31.113288)"><path style="fill:#000000;stroke-width:0.202532" d="M 183.53711 0 C 183.49804 0.039072756 183.19217 6.4705986 182.85742 14.291016 L 182.24805 28.509766 L 181.63672 30.113281 C 181.06613 31.607502 180.84502 31.90056 178.41016 34.421875 L 175.79688 37.128906 L 175.79688 39.941406 L 175.79688 42.753906 L 174.37891 44.162109 L 172.96289 45.568359 L 172.96289 48.179688 L 172.96289 50.792969 L 170.9375 52.972656 L 168.91211 55.150391 L 168.91211 57.431641 L 168.91211 59.712891 L 166.48047 62.296875 L 164.05078 64.878906 L 164.05078 79.482422 L 164.05078 94.085938 L 161.11328 94.085938 L 158.17773 94.085938 L 158.17773 102.1875 L 158.17773 110.28906 L 155.44336 110.28906 L 152.71094 110.28906 L 152.6582 130.79492 L 152.60742 151.30078 L 149.92383 151.35742 L 147.24023 151.41406 L 147.24023 118.90039 L 147.24023 86.388672 L 138.53125 86.388672 L 129.82227 86.388672 L 129.82227 84.261719 L 129.82227 82.136719 L 127.89844 82.136719 L 125.97461 82.136719 L 125.96484 71.654297 L 125.95508 61.173828 L 124.65039 59.755859 L 123.3457 58.337891 L 123.34375 54.484375 L 123.3418 50.630859 L 122.02539 49.326172 L 120.70898 48.021484 L 120.70898 43.626953 L 120.70898 39.232422 L 114.75391 34.912109 L 108.79883 30.591797 L 108.33398 28.261719 L 107.87109 25.933594 L 107.60547 27.25 C 107.45969 27.974048 107.24771 29.027634 107.13281 29.591797 L 106.92383 30.617188 L 101.0625 34.857422 L 95.203125 39.097656 L 95.197266 43.482422 L 95.189453 47.867188 L 93.771484 49.384766 L 92.353516 50.902344 L 92.353516 54.728516 L 92.353516 58.552734 L 91.140625 59.753906 L 89.927734 60.955078 L 89.875 71.494141 L 89.822266 82.035156 L 87.847656 82.091797 L 85.873047 82.150391 L 85.873047 101.38477 L 85.873047 120.61719 L 83.242188 120.61719 L 80.611328 120.61719 L 80.558594 133.42773 L 80.505859 146.23633 L 74.988281 146.29102 L 69.46875 146.3457 L 69.46875 148.87305 L 69.46875 151.40234 L 68.861328 151.40234 L 68.253906 151.40234 L 68.253906 139.65625 L 68.253906 127.9082 L 66.025391 127.9082 L 63.796875 127.9082 L 63.796875 121.83203 L 63.796875 115.75586 L 62.886719 115.75586 L 61.974609 115.75586 L 61.974609 114.33789 L 61.974609 112.92188 L 52.152344 112.92188 L 42.330078 112.92188 L 42.330078 114.33789 L 42.330078 115.75586 L 40.810547 115.75586 L 39.291016 115.75586 L 39.291016 125.78125 L 39.291016 135.80664 L 36.152344 135.80664 L 33.011719 135.80664 L 33.011719 143.40234 L 33.011719 150.99609 L 30.378906 150.99609 L 27.746094 150.99609 L 27.746094 145.02148 L 27.746094 139.04688 L 23.392578 139.04688 L 19.037109 139.04688 L 19.037109 143.9082 L 19.037109 148.76953 L 11.847656 148.76953 L 4.6582031 148.76953 L 4.6582031 154.33789 L 4.6582031 159.9082 L 2.3300781 159.9082 L 0 159.9082 L 0 192.82031 L 0 225.73047 L 378.32812 225.73047 L 756.6582 225.73047 L 756.6582 219.52734 L 756.6582 203.35156 L 756.6582 180.9707 L 745.92383 180.9707 L 745.92383 172.36328 L 745.92383 163.75586 L 743.69727 163.75586 L 741.46875 163.75586 L 741.46875 161.93359 L 741.46875 160.11133 L 739.84961 160.11133 L 738.22852 160.11133 L 738.22852 157.27539 L 738.22852 154.43945 L 731.54492 154.43945 L 724.86133 154.43945 L 724.86133 150.38867 L 724.86133 146.33789 L 723.14062 146.33789 L 721.41797 146.33789 L 721.41797 141.67969 L 721.41797 137.02148 L 718.58398 137.02148 L 715.74805 137.02148 L 715.74805 134.89648 L 715.74805 132.76953 L 713.31641 132.76953 L 710.88672 132.76953 L 710.88672 134.89648 L 710.88672 137.02148 L 710.38086 137.02148 L 709.875 137.02148 L 709.875 132.87109 L 709.875 128.71875 L 708.75977 128.71875 L 707.64648 128.71875 L 707.64648 123.6543 L 707.64648 118.5918 L 700.75977 118.5918 L 693.875 118.5918 L 693.875 120.00977 L 693.875 121.42773 L 692.47852 121.42773 C 691.42444 121.42773 691.05291 121.50105 690.96484 121.73047 C 690.86888 121.98067 690.347 122.03516 688.00781 122.03516 L 685.16602 122.03516 L 685.16602 125.37695 L 685.16602 128.71875 L 684.05469 128.71875 L 682.94531 128.71875 L 682.89062 132.82031 L 682.83594 136.92188 L 681.97461 136.98242 L 681.11523 137.04492 L 681.11523 144.22461 L 681.11523 151.40234 L 680.50977 151.40234 L 679.90625 151.40234 L 679.85156 145.78125 L 679.79883 140.16211 L 669.51953 140.10938 L 659.24219 140.05664 L 659.24219 138.64062 L 659.24219 137.22461 L 646.98828 137.22461 L 634.73438 137.22461 L 634.73438 133.58984 L 634.73438 129.95508 L 633.67188 129.89453 L 632.60742 129.83203 L 632.5625 103.19922 C 632.53831 88.551119 632.51395 76.361949 632.51172 76.111328 C 632.50828 75.715389 632.4012 75.654297 631.69727 75.654297 C 631.02209 75.654297 630.88672 75.722997 630.88672 76.060547 C 630.88672 76.398108 630.75127 76.464844 630.07617 76.464844 L 629.26758 76.464844 L 629.26758 72.71875 L 629.26758 68.972656 L 628.35547 68.972656 C 627.579 68.972656 627.44336 69.031882 627.44336 69.376953 C 627.44336 69.691988 627.30849 69.78125 626.83594 69.78125 L 626.22852 69.78125 L 626.22852 66.337891 L 626.22852 62.896484 L 625.31641 62.896484 C 624.47947 62.896484 624.40625 62.853747 624.40625 62.388672 C 624.40625 61.932989 624.32481 61.882812 623.5957 61.882812 C 622.92053 61.882812 622.78516 61.816065 622.78516 61.478516 C 622.78516 61.10709 622.65126 61.072266 621.16602 61.072266 L 619.54492 61.072266 L 619.54492 61.984375 L 619.54492 62.896484 L 615.69727 62.896484 L 611.84961 62.896484 L 611.84961 62.388672 C 611.84961 61.905021 611.79591 61.882812 610.63477 61.882812 L 609.41797 61.882812 L 609.41797 60.871094 L 609.41797 59.857422 L 607.39258 59.857422 L 605.36719 59.857422 L 605.36719 60.871094 L 605.36719 61.882812 L 602.02539 61.882812 L 598.68359 61.882812 L 598.68359 60.871094 L 598.68359 59.857422 L 596.55859 59.857422 L 594.43164 59.857422 L 594.43164 60.871094 C 594.43164 61.861077 594.41828 61.882812 593.82422 61.882812 C 593.31111 61.882812 593.2168 61.961105 593.2168 62.388672 C 593.2168 62.876858 593.16959 62.896484 591.90039 62.896484 C 590.63115 62.896484 590.58398 62.876824 590.58398 62.388672 C 590.58398 61.909934 590.52192 61.882812 589.46875 61.882812 C 588.48974 61.882812 588.35547 61.834472 588.35547 61.478516 C 588.35547 61.10709 588.21962 61.072266 586.73438 61.072266 L 585.11523 61.072266 L 585.11523 61.970703 C 585.11523 62.836427 585.0912 62.872441 584.45703 62.933594 L 583.79883 62.996094 L 583.74219 66.388672 L 583.6875 69.78125 L 583.08398 69.78125 C 582.61619 69.78125 582.48242 69.691259 582.48242 69.376953 C 582.48242 69.039392 582.34697 68.972656 581.67188 68.972656 C 580.71747 68.972656 580.79279 68.581351 580.85742 73.173828 L 580.9043 76.464844 L 579.9707 76.464844 C 579.17311 76.464844 579.03906 76.406978 579.03906 76.060547 C 579.03906 75.722986 578.90361 75.654297 578.22852 75.654297 L 577.41797 75.654297 L 577.41797 92.464844 L 577.41797 109.27539 L 573.97461 109.27539 L 570.5332 109.27539 L 570.5332 119.40234 L 570.5332 129.52734 L 568.60742 129.52734 L 566.68359 129.52734 L 566.68359 125.88281 L 566.68359 122.23633 L 559.79883 122.23633 L 552.91211 122.23633 L 552.91211 120.72266 L 552.91211 119.20703 L 548.50781 119.15234 L 544.10156 119.09766 L 544.04492 116.71875 L 543.98828 114.33789 L 543.28516 114.33789 L 542.58203 114.33789 L 542.58203 107.45312 L 542.58203 100.56641 L 537.82422 100.56641 L 533.06445 100.56641 L 533.06445 98.439453 L 533.06445 96.3125 L 524.75977 96.3125 L 516.45703 96.3125 L 516.45703 98.439453 L 516.45703 100.56641 L 513.41797 100.56641 L 510.38086 100.56641 L 510.38086 107.55273 L 510.38086 114.54102 L 508.96289 114.54102 L 507.54492 114.54102 L 507.54492 123.66406 L 507.54492 132.78711 L 506.07617 132.72656 L 504.60742 132.66797 L 504.54883 131.19922 L 504.48828 129.73047 L 503.78906 129.73047 L 503.08984 129.73047 L 503.08984 128.3125 L 503.08984 126.89648 L 498.22852 126.89648 L 493.36719 126.89648 L 493.36719 124.76953 L 493.36719 122.64258 L 491.84961 122.64258 L 490.33008 122.64258 L 490.33008 121.5293 L 490.33008 120.41406 L 484.55664 120.41406 L 478.78516 120.41406 L 478.78516 121.5293 L 478.78516 122.64258 L 477.77344 122.64258 L 476.75977 122.64258 L 476.75977 93.984375 L 476.75977 65.326172 L 472.91211 65.326172 L 469.06445 65.326172 L 469.06445 62.794922 L 469.06445 60.263672 L 467.89844 60.261719 C 467.25796 60.260925 466.11909 60.201877 465.36719 60.130859 L 464 60.001953 L 464 58.714844 C 464 57.991752 463.91259 57.427734 463.79883 57.427734 C 463.68506 57.427734 463.5957 57.990491 463.5957 58.712891 L 463.5957 60 L 461.74219 60.130859 C 460.72255 60.203237 458.80787 60.263672 457.48828 60.263672 L 455.08984 60.263672 L 455.04492 57.984375 L 455.00195 55.705078 L 454.9375 57.984375 L 454.87305 60.263672 L 453.86719 60.263672 C 453.3139 60.263672 452.86133 60.17193 452.86133 60.060547 C 452.86133 59.949126 452.49635 59.857422 452.05078 59.857422 C 451.60502 59.857422 451.24023 59.949164 451.24023 60.060547 C 451.24023 60.171967 450.87526 60.263672 450.42969 60.263672 C 449.70043 60.263672 449.62109 60.211557 449.62109 59.755859 C 449.62109 59.300177 449.53966 59.25 448.81055 59.25 C 448.08129 59.25 448 59.300166 448 59.755859 C 448 60.211546 447.91856 60.263672 447.18945 60.263672 L 446.37891 60.263672 L 446.37891 62.794922 L 446.37891 65.326172 L 444.55664 65.326172 L 442.73438 65.326172 L 442.73438 96.921875 L 442.73438 128.51562 L 438.37891 128.51562 L 434.02539 128.51562 L 434.02539 121.22461 L 434.02539 113.93359 L 432.70898 113.93359 L 431.39258 113.93359 L 431.39258 89.021484 C 431.39258 64.245098 431.39114 64.111328 430.98828 64.111328 C 430.76536 64.111328 430.58203 64.03006 430.58203 63.931641 C 430.58203 63.83326 430.40073 63.704765 430.17773 63.646484 C 429.80899 63.550061 429.77022 63.354245 429.73242 61.447266 L 429.69336 59.351562 L 429.58008 61.478516 L 429.46875 63.605469 L 427.69727 63.664062 C 426.72256 63.696226 425.92383 63.808942 425.92383 63.916016 C 425.92383 64.023052 425.37736 64.111328 424.70898 64.111328 L 423.49414 64.111328 L 423.49414 61.173828 L 423.49414 58.238281 L 419.84766 58.238281 L 416.20312 58.238281 L 416.20312 56.921875 L 416.20312 55.605469 L 415.5957 55.605469 C 415.05576 55.605469 414.98828 55.536177 414.98828 54.996094 L 414.98828 54.388672 L 412.6582 54.388672 L 410.33008 54.388672 L 410.33008 54.996094 C 410.33008 55.55546 410.2737 55.605469 409.62109 55.605469 C 409.12616 55.605469 408.91211 55.512964 408.91211 55.300781 C 408.91211 55.088599 408.69817 54.996094 408.20312 54.996094 L 407.49414 54.996094 L 407.49414 52.667969 C 407.49414 51.250249 407.41423 50.337891 407.29102 50.337891 C 407.1678 50.337891 407.08789 51.250249 407.08789 52.667969 L 407.08789 54.996094 L 400.70898 54.996094 C 395.17313 54.996094 394.32812 55.037159 394.32812 55.300781 C 394.32813 55.512964 394.11616 55.605469 393.62109 55.605469 L 392.91211 55.605469 L 392.91211 52.464844 C 392.91211 50.507037 392.8353 49.326172 392.70898 49.326172 C 392.58263 49.326172 392.50586 50.507037 392.50586 52.464844 L 392.50586 55.605469 L 390.68359 55.605469 L 388.86133 55.605469 L 388.86133 56.921875 L 388.86133 58.238281 L 386.63281 58.238281 L 384.4043 58.238281 L 384.4043 84.046875 L 384.4043 109.85742 L 383.74609 109.92188 L 383.08789 109.98438 L 383.0293 111.65625 L 382.9707 113.32617 L 382.37109 113.32617 L 381.77148 113.32617 L 381.77148 124.36328 L 381.77148 135.40234 L 380.86133 135.40234 L 379.94922 135.40234 L 379.94922 119.30078 L 379.94922 103.19922 L 377.11328 103.19922 L 374.2793 103.19922 L 374.2793 101.67969 L 374.2793 100.16211 L 368.60742 100.16211 L 362.9375 100.16211 L 362.9375 98.642578 L 362.9375 97.123047 L 357.46875 97.123047 L 352 97.123047 L 352 98.642578 L 352 100.16211 L 350.48047 100.16211 L 348.96289 100.16211 L 348.96289 99.554688 L 348.96289 98.947266 L 346.02539 98.947266 L 343.08789 98.947266 L 343.08789 99.554688 C 343.08789 100.12865 343.04442 100.16211 342.2793 100.16211 L 341.46875 100.16211 L 341.46875 98.337891 L 341.46875 96.515625 L 339.94922 96.515625 L 338.42969 96.515625 L 338.42969 86.591797 C 338.42969 80.174325 338.36018 76.667969 338.23047 76.667969 C 338.10147 76.667969 338.0102 80.19235 337.97656 86.541016 L 337.92383 96.414062 L 335.13867 96.470703 L 332.35352 96.527344 L 332.35352 98.34375 L 332.35352 100.16211 L 329.7207 100.16211 L 327.08789 100.16211 L 327.08789 101.67969 L 327.08789 103.19922 L 323.3418 103.19922 L 319.5957 103.19922 L 319.5957 104.41406 L 319.5957 105.63086 L 318.88672 105.63086 L 318.17773 105.63086 L 318.17773 80.921875 L 318.17773 56.212891 L 316.45508 56.212891 L 314.73438 56.212891 L 314.73438 50.136719 L 314.73438 44.060547 L 313.82227 44.060547 C 312.98514 44.060547 312.91211 44.019758 312.91211 43.554688 L 312.91211 43.046875 L 308.35352 43.046875 L 303.79688 43.046875 L 303.79688 43.554688 C 303.79688 44.059194 303.79036 44.060547 301.87305 44.060547 L 299.94922 44.060547 L 299.94922 50.128906 L 299.94922 56.195312 L 298.2793 56.253906 L 296.60742 56.314453 L 296.55664 81.580078 L 296.50391 106.8457 L 294.88477 106.8457 L 293.26562 106.8457 L 293.26562 104.61719 L 293.26562 102.38867 L 292.35352 102.38867 L 291.44336 102.38867 L 291.44336 75.755859 L 291.44336 49.123047 L 287.49414 49.123047 L 283.54492 49.123047 L 283.54492 43.25 L 283.54492 37.376953 L 282.58203 37.386719 C 281.87827 37.393896 278.9021 38.338329 271.49414 40.90625 L 261.36719 44.417969 L 261.26562 47.732422 L 261.16406 51.046875 L 260.4043 51.111328 L 259.64648 51.173828 L 259.64648 56.738281 L 259.64648 62.302734 L 257.77148 62.246094 L 255.89844 62.1875 L 255.8418 60.007812 C 255.78667 57.918732 255.80403 57.807299 256.28711 57.324219 L 256.79102 56.820312 L 254.87695 56.820312 L 252.96289 56.820312 L 252.96289 55.402344 L 252.96289 53.984375 L 252.17188 53.984375 L 251.38086 53.984375 L 247.68359 47.705078 C 245.64967 44.251913 243.93077 41.429615 243.86523 41.431641 C 243.79971 41.433663 242.09513 44.234907 240.07617 47.658203 L 236.4043 53.882812 L 235.57031 53.945312 L 234.73438 54.007812 L 234.73438 55.414062 L 234.73438 56.820312 L 232.87695 56.820312 L 231.01758 56.820312 L 231.46484 57.296875 C 231.87877 57.737337 231.90891 57.939656 231.85547 59.980469 L 231.79688 62.1875 L 228.48828 62.289062 L 225.17773 62.388672 L 225.60156 62.929688 L 226.02734 63.46875 L 225.97656 81.966797 L 225.92383 100.46484 L 225.26562 100.5293 L 224.60742 100.5918 L 224.60742 93.998047 L 224.60742 87.402344 L 218.63281 87.402344 L 212.6582 87.402344 L 212.6582 88.009766 L 212.6582 88.617188 L 211.24023 88.617188 L 209.82227 88.617188 L 209.82227 91.65625 L 209.82227 94.693359 L 207.5957 94.693359 L 205.36719 94.693359 L 205.36719 114.94727 L 205.36719 135.19922 L 204.15234 135.19922 L 202.9375 135.19922 L 202.9375 99.904297 L 202.9375 64.611328 L 200.60742 62.289062 L 198.2793 59.964844 L 198.2793 57.529297 L 198.2793 55.091797 L 196.15234 52.972656 L 194.02539 50.851562 L 194.02539 48.210938 L 194.02539 45.568359 L 192.60742 44.162109 L 191.18945 42.753906 L 191.18945 39.814453 L 191.18945 36.875 L 188.58008 34.240234 C 186.09598 31.731928 185.94023 31.526358 185.36719 29.984375 L 184.76562 28.363281 L 184.1875 14.146484 C 183.86927 6.3268573 183.57619 -0.039080315 183.53711 0 z " transform="matrix(0.26458333,0,0,0.26458333,-13.702806,31.113288)" /></g></svg>